<?xml version="1.0" encoding="utf-8"?>
<svg viewBox="0 0 600 600" xmlns="http://www.w3.org/2000/svg" xmlns:xlink="http://www.w3.org/1999/xlink">
  <!--Generated by AMDN-->
  <g id="Layer 1">
    <path id="Path" style="fill:#141a14;fill-opacity:1;fill-rule:evenodd;opacity:1;stroke:#000000;stroke-linecap:round;stroke-linejoin:round;stroke-miterlimit:10;stroke-opacity:1;stroke-width:1;" d="M1.33227e-13,100 C1.33227e-13,38.1441,38.1441,-1.33227e-13,100,-1.33227e-13 C100,-1.33227e-13,500,-1.33227e-13,500,-1.33227e-13 C561.856,-1.33227e-13,600,38.1441,600,100 C600,100,600,500,600,500 C600,561.856,561.856,600,500,600 C500,600,100,600,100,600 C38.1441,600,1.33227e-13,561.856,1.33227e-13,500 C1.33227e-13,500,1.33227e-13,100,1.33227e-13,100 z"/>
    <g id="Text">
      <g id="Text">
        <path style="fill:#c2f0c2;fill-opacity:1;fill-rule:nonzero;opacity:1;stroke:none;" d="M121.753,422.532 C121.753,422.532,153.198,422.532,153.198,422.532 C192.163,422.532,216.772,403.391,224.975,364.085 C224.975,364.085,262.915,180.882,262.915,180.882 C262.915,180.882,221.557,180.882,221.557,180.882 C221.557,180.882,184.985,357.591,184.985,357.591 C180.2,379.124,171.313,386.302,150.464,386.302 C150.464,386.302,129.272,386.302,129.272,386.302 C129.272,386.302,121.753,422.532,121.753,422.532 z M341.186,424.583 C401.001,424.583,443.383,398.264,453.295,350.755 C461.157,312.132,441.674,289.573,396.557,283.421 C396.557,283.421,366.479,279.319,366.479,279.319 C337.085,275.901,325.122,265.648,329.223,246.165 C333.667,224.632,352.466,212.327,386.303,212.327 C419.799,212.327,432.788,224.29,429.711,248.558 C429.711,248.558,427.661,257.786,427.661,257.786 C427.661,257.786,467.651,257.786,467.651,257.786 C467.651,257.786,469.702,248.558,469.702,248.558 C474.487,203.099,448.852,177.464,394.165,177.464 C337.768,177.464,298.12,204.808,289.233,248.9 C281.03,287.522,300.854,309.739,347.68,315.55 C347.68,315.55,374.682,318.968,374.682,318.968 C404.76,322.386,416.04,332.981,411.938,353.831 C406.469,377.415,386.303,389.378,350.415,389.378 C314.526,389.378,299.487,377.073,301.538,350.413 C301.538,350.413,302.563,344.944,302.563,344.944 C302.563,344.944,263.257,344.944,263.257,344.944 C263.257,344.944,262.231,350.413,262.231,350.413 C255.737,397.923,282.739,424.583,341.186,424.583 z"/>
      </g>
    </g>
  </g>
</svg>
